<svg width="32" height="32" viewBox="0 0 32 32" fill="none" xmlns="http://www.w3.org/2000/svg">
<rect width="32" height="32" rx="10" fill="#1B1B1F"/>
<path opacity="0.92" d="M23.5729 14.69C24.143 14.1167 24.4281 13.8301 24.7854 13.8296C25.1427 13.8291 25.4298 14.1162 26.0039 14.6903L26.4097 15.0961C26.9837 15.6701 27.2707 15.9571 27.2707 16.3138C27.2707 16.6704 26.9837 16.9574 26.4097 17.5314L19.774 24.1671C18.6781 25.263 18.1302 25.811 17.5998 25.5932C17.0694 25.3754 17.0648 24.6379 17.0558 23.1628C17.0498 22.1949 17.1345 21.3273 17.4222 21.0397C17.9038 20.4098 21.609 16.6647 23.5729 14.69Z" fill="white"/>
<path opacity="0.92" d="M6.62344 14.6903C7.19754 14.1162 7.48459 13.8291 7.84191 13.8296C8.19923 13.8301 8.48429 14.1167 9.05442 14.69C11.0183 16.6647 14.7235 20.4098 15.2051 21.0397C15.4928 21.3273 15.5775 22.1949 15.5715 23.1629C15.5625 24.6379 15.558 25.3754 15.0275 25.5932C14.4971 25.811 13.9492 25.263 12.8533 24.1671L6.21757 17.5314C5.64358 16.9574 5.35658 16.6704 5.35658 16.3138C5.35658 15.9571 5.64358 15.6701 6.21757 15.0961L6.62344 14.6903Z" fill="white"/>
<rect x="16.3137" y="5" width="10.4753" height="10.4753" rx="0.860987" transform="rotate(45 16.3137 5)" fill="white"/>
</svg>
