<svg width="390" height="82" viewBox="0 0 390 82" fill="none" xmlns="http://www.w3.org/2000/svg">
<path d="M46.016 20.648V29.16H32.64V65H22.656V29.16H9.28V20.648H46.016ZM79.1845 20.648H89.1685V65H79.1845V46.184H62.4165V65H52.4325V20.648H62.4165V37.608H79.1845V20.648ZM107.817 42.792C107.817 44.968 108.073 46.9307 108.585 48.68C109.139 50.4293 109.907 51.944 110.889 53.224C111.913 54.4613 113.15 55.4213 114.601 56.104C116.051 56.7867 117.715 57.128 119.593 57.128C121.427 57.128 123.07 56.7867 124.521 56.104C126.014 55.4213 127.251 54.4613 128.233 53.224C129.257 51.944 130.025 50.4293 130.537 48.68C131.091 46.9307 131.369 44.968 131.369 42.792C131.369 40.616 131.091 38.6533 130.537 36.904C130.025 35.112 129.257 33.5973 128.233 32.36C127.251 31.08 126.014 30.0987 124.521 29.416C123.07 28.7333 121.427 28.392 119.593 28.392C117.715 28.392 116.051 28.7547 114.601 29.48C113.15 30.1627 111.913 31.144 110.889 32.424C109.907 33.6613 109.139 35.176 108.585 36.968C108.073 38.7173 107.817 40.6587 107.817 42.792ZM141.673 42.792C141.673 46.5893 141.097 49.9387 139.945 52.84C138.835 55.6987 137.299 58.1093 135.337 60.072C133.374 61.992 131.027 63.4427 128.297 64.424C125.609 65.4053 122.707 65.896 119.593 65.896C116.563 65.896 113.705 65.4053 111.017 64.424C108.329 63.4427 105.982 61.992 103.977 60.072C101.971 58.1093 100.393 55.6987 99.2405 52.84C98.0885 49.9387 97.5125 46.5893 97.5125 42.792C97.5125 38.9947 98.1098 35.6667 99.3045 32.808C100.499 29.9067 102.099 27.4747 104.105 25.512C106.153 23.5493 108.499 22.0773 111.145 21.096C113.833 20.1147 116.649 19.624 119.593 19.624C122.622 19.624 125.481 20.1147 128.169 21.096C130.857 22.0773 133.203 23.5493 135.209 25.512C137.214 27.4747 138.793 29.9067 139.945 32.808C141.097 35.6667 141.673 38.9947 141.673 42.792ZM162.987 20.136C169.643 20.136 174.742 21.3307 178.283 23.72C181.824 26.0667 183.595 29.736 183.595 34.728C183.595 37.8427 182.87 40.3813 181.419 42.344C180.011 44.264 177.963 45.7787 175.275 46.888C176.171 47.9973 177.11 49.2773 178.091 50.728C179.072 52.136 180.032 53.6293 180.971 55.208C181.952 56.744 182.891 58.3653 183.787 60.072C184.683 61.736 185.515 63.3787 186.283 65H175.083C174.272 63.5493 173.44 62.0773 172.587 60.584C171.776 59.0907 170.923 57.64 170.027 56.232C169.174 54.824 168.32 53.5013 167.467 52.264C166.614 50.984 165.76 49.832 164.907 48.808H159.979V65H149.995V21.288C152.171 20.8613 154.411 20.5627 156.715 20.392C159.062 20.2213 161.152 20.136 162.987 20.136ZM163.563 28.648C162.838 28.648 162.176 28.6693 161.579 28.712C161.024 28.7547 160.491 28.7973 159.979 28.84V40.872H162.795C166.55 40.872 169.238 40.4027 170.859 39.464C172.48 38.5253 173.291 36.9253 173.291 34.664C173.291 32.488 172.459 30.952 170.795 30.056C169.174 29.1173 166.763 28.648 163.563 28.648ZM222.443 65C219.584 59.9227 216.491 54.9093 213.163 49.96C209.835 45.0107 206.293 40.3387 202.539 35.944V65H192.683V20.648H200.811C202.219 22.056 203.776 23.784 205.483 25.832C207.189 27.88 208.917 30.0773 210.667 32.424C212.459 34.728 214.229 37.1387 215.979 39.656C217.728 42.1307 219.371 44.52 220.907 46.824V20.648H230.827V65H222.443ZM267.697 65.384C266.971 65.384 266.118 65.3413 265.137 65.256C264.198 65.2133 263.217 65.128 262.193 65C261.211 64.9147 260.273 64.808 259.377 64.68C258.481 64.5093 257.713 64.3387 257.073 64.168V21.48C257.841 21.2667 258.694 21.096 259.633 20.968C260.571 20.7973 261.531 20.6693 262.513 20.584C263.537 20.456 264.518 20.3707 265.457 20.328C266.438 20.2853 267.334 20.264 268.145 20.264C270.534 20.264 272.795 20.456 274.929 20.84C277.105 21.224 279.003 21.864 280.625 22.76C282.246 23.656 283.526 24.8507 284.465 26.344C285.446 27.7947 285.937 29.608 285.937 31.784C285.937 34.1733 285.318 36.2213 284.081 37.928C282.886 39.592 281.265 40.744 279.217 41.384C280.497 41.6827 281.67 42.1093 282.737 42.664C283.803 43.2187 284.742 43.944 285.553 44.84C286.363 45.6933 286.982 46.76 287.409 48.04C287.878 49.2773 288.113 50.7707 288.113 52.52C288.113 56.7013 286.449 59.9013 283.121 62.12C279.793 64.296 274.651 65.384 267.697 65.384ZM261.425 43.752V61.224C262.065 61.3093 263.025 61.416 264.305 61.544C265.585 61.6293 266.886 61.672 268.208 61.672C270.171 61.672 272.07 61.544 273.905 61.288C275.782 61.032 277.425 60.5627 278.833 59.88C280.241 59.1973 281.371 58.2587 282.225 57.064C283.078 55.8693 283.505 54.3333 283.505 52.456C283.505 50.7493 283.206 49.3413 282.609 48.232C282.011 47.08 281.158 46.184 280.049 45.544C278.939 44.8613 277.574 44.392 275.953 44.136C274.374 43.88 272.603 43.752 270.641 43.752H261.425ZM261.425 40.04H269.873C271.451 40.04 272.945 39.9333 274.353 39.72C275.761 39.464 276.977 39.0373 278.001 38.44C279.067 37.8 279.899 36.968 280.497 35.944C281.094 34.8773 281.393 33.5333 281.393 31.912C281.393 30.4613 281.073 29.2453 280.433 28.264C279.793 27.24 278.875 26.408 277.681 25.768C276.529 25.128 275.142 24.68 273.521 24.424C271.899 24.1253 270.107 23.976 268.145 23.976C266.566 23.976 265.222 24.0187 264.113 24.104C263.046 24.1893 262.15 24.296 261.425 24.424V40.04ZM305.513 65.576C304.105 65.5333 302.868 65.3413 301.801 65C300.777 64.7013 299.902 64.232 299.177 63.592C298.494 62.9093 297.961 62.056 297.577 61.032C297.236 59.9653 297.065 58.6427 297.065 57.064V16.104L301.225 15.336V56.936C301.225 57.96 301.31 58.792 301.481 59.432C301.694 60.0293 301.993 60.52 302.377 60.904C302.761 61.2453 303.252 61.5013 303.849 61.672C304.489 61.8427 305.236 61.992 306.089 62.12L305.513 65.576ZM341.666 48.488C341.666 51.0907 341.282 53.4587 340.514 55.592C339.788 57.7253 338.743 59.5387 337.378 61.032C336.055 62.5253 334.476 63.6987 332.642 64.552C330.807 65.3627 328.78 65.768 326.562 65.768C324.343 65.768 322.316 65.3627 320.482 64.552C318.647 63.6987 317.047 62.5253 315.682 61.032C314.359 59.5387 313.314 57.7253 312.546 55.592C311.82 53.4587 311.458 51.0907 311.458 48.488C311.458 45.8853 311.82 43.5173 312.546 41.384C313.314 39.2507 314.359 37.4373 315.682 35.944C317.047 34.408 318.647 33.2347 320.482 32.424C322.316 31.5707 324.343 31.144 326.562 31.144C328.78 31.144 330.807 31.5707 332.642 32.424C334.476 33.2347 336.055 34.408 337.378 35.944C338.743 37.4373 339.788 39.2507 340.514 41.384C341.282 43.5173 341.666 45.8853 341.666 48.488ZM337.25 48.488C337.25 44.3493 336.29 41.064 334.37 38.632C332.45 36.1573 329.847 34.92 326.562 34.92C323.276 34.92 320.674 36.1573 318.754 38.632C316.834 41.064 315.874 44.3493 315.874 48.488C315.874 52.6267 316.834 55.912 318.754 58.344C320.674 60.776 323.276 61.992 326.562 61.992C329.847 61.992 332.45 60.776 334.37 58.344C336.29 55.912 337.25 52.6267 337.25 48.488ZM372.26 61.16C372.004 61.3733 371.62 61.6293 371.108 61.928C370.596 62.184 369.956 62.4613 369.188 62.76C368.462 63.0587 367.609 63.3147 366.628 63.528C365.689 63.6987 364.622 63.784 363.428 63.784C361.508 63.784 359.652 63.4853 357.86 62.888C356.068 62.2907 354.489 61.352 353.124 60.072C351.801 58.792 350.734 57.1493 349.924 55.144C349.113 53.096 348.708 50.6213 348.708 47.72C348.708 45.3733 349.07 43.1973 349.796 41.192C350.521 39.1867 351.545 37.4587 352.868 36.008C354.233 34.5147 355.876 33.3627 357.796 32.552C359.758 31.6987 361.956 31.272 364.388 31.272C367.46 31.272 369.913 31.4853 371.748 31.912C373.625 32.296 375.161 32.68 376.356 33.064V63.272C376.356 68.2213 375.076 71.7413 372.516 73.832C369.956 75.9653 366.094 77.032 360.932 77.032C358.798 77.032 356.857 76.8613 355.108 76.52C353.401 76.2213 351.929 75.8587 350.692 75.432L351.524 71.656C352.548 72.1253 353.934 72.5307 355.684 72.872C357.476 73.2133 359.268 73.384 361.06 73.384C364.985 73.384 367.822 72.616 369.572 71.08C371.364 69.5867 372.26 67.0053 372.26 63.336V61.16ZM372.196 35.944C371.47 35.7307 370.532 35.5387 369.38 35.368C368.228 35.1547 366.585 35.048 364.452 35.048C362.66 35.048 361.06 35.368 359.652 36.008C358.286 36.6053 357.113 37.48 356.132 38.632C355.15 39.7413 354.404 41.0853 353.892 42.664C353.38 44.2 353.124 45.9067 353.124 47.784C353.124 49.96 353.422 51.8373 354.02 53.416C354.617 54.952 355.385 56.2107 356.324 57.192C357.305 58.1733 358.414 58.8987 359.652 59.368C360.889 59.7947 362.148 60.008 363.428 60.008C365.305 60.008 367.012 59.7307 368.548 59.176C370.126 58.6213 371.342 57.9813 372.196 57.256V35.944Z" fill="#2F2D2D"/>
</svg>
